<svg width="55" height="55" viewBox="0 0 55 55" fill="none" xmlns="http://www.w3.org/2000/svg">
<path d="M41.226 39.0077C43.943 35.5382 45.4195 31.2586 45.4198 26.8518C45.3977 21.6187 43.3356 16.6005 39.6718 12.8639C37.8514 11.0073 35.6789 9.53234 33.2816 8.52547C30.8842 7.51861 28.3101 7 25.7099 7C23.1097 7 20.5356 7.51861 18.1382 8.52547C15.7409 9.53234 13.5684 11.0073 11.748 12.8639C8.08418 16.6005 6.02208 21.6187 6 26.8518C6.09684 32.0698 8.14803 37.0614 11.748 40.8398C16.8708 46.5183 25.7967 48.142 33.646 45.1204L28.9833 40.8832C26.6196 41.4022 24.1625 41.3102 21.8442 40.616C19.5259 39.9217 17.4228 38.648 15.7334 36.9152C13.0759 34.2507 11.5836 30.6411 11.5836 26.8779C11.5836 23.1147 13.0759 19.5051 15.7334 16.8406C17.0347 15.5209 18.5832 14.4705 20.2905 13.7495C21.9979 13.0284 23.8306 12.6508 25.6839 12.6381C27.539 12.6388 29.3753 13.0109 31.0842 13.7327C32.7932 14.4545 34.3403 15.5112 35.6343 16.8406C38.2721 19.5076 39.7618 23.1008 39.7847 26.8518C39.8114 29.9314 38.8832 32.9435 37.1278 35.4738L30.5462 29.5001H22.8446L41.5907 46.1971H49.0319L41.226 39.0077Z" fill="white"/>
</svg>
